<mxfile host="app.diagrams.net" modified="2020-11-03T14:02:01.546Z" agent="5.0 (Windows NT 6.1; Win64; x64) AppleWebKit/537.36 (KHTML, like Gecko) Chrome/86.0.4240.111 Safari/537.36" etag="iaNAIMUQdI6JMXNU3efI" version="13.8.8" type="github">
  <diagram id="Hr1LNcDFdF_ypw1xQ_ta" name="Page-1">
    <mxGraphModel dx="1673" dy="2081" grid="1" gridSize="10" guides="1" tooltips="1" connect="1" arrows="1" fold="1" page="1" pageScale="1" pageWidth="827" pageHeight="1169" math="0" shadow="0">
      <root>
        <mxCell id="0" />
        <mxCell id="1" parent="0" />
        <mxCell id="X8gLjRTlshbioLyaXArV-1" value="&amp;nbsp; &amp;nbsp; &amp;nbsp; &amp;nbsp; &amp;nbsp; &amp;nbsp; &amp;nbsp; &amp;nbsp; &amp;nbsp; &amp;nbsp; &amp;nbsp; &amp;nbsp; &amp;nbsp; &amp;nbsp; &amp;nbsp; &amp;nbsp; &amp;nbsp; &amp;nbsp; &amp;nbsp; &amp;nbsp; &amp;nbsp; &amp;nbsp; &amp;nbsp; &amp;nbsp; &amp;nbsp; &amp;nbsp; &amp;nbsp; &amp;nbsp; &amp;nbsp; &amp;nbsp; &amp;nbsp; &amp;nbsp; &amp;nbsp; &amp;nbsp; &amp;nbsp; &amp;nbsp; &amp;nbsp; &amp;nbsp; &amp;nbsp; &amp;nbsp; &amp;nbsp; &amp;nbsp; &amp;nbsp; &amp;nbsp; &amp;nbsp; &amp;nbsp; &amp;nbsp; &amp;nbsp; &amp;nbsp; &amp;nbsp; &amp;nbsp; &amp;nbsp; &amp;nbsp; &amp;nbsp; &amp;nbsp; &amp;nbsp; &amp;nbsp; &amp;nbsp; &amp;nbsp; &amp;nbsp; &amp;nbsp; &amp;nbsp; &amp;nbsp; &amp;nbsp; &amp;nbsp; &amp;nbsp; &amp;nbsp; &amp;nbsp; &amp;nbsp; &amp;nbsp; &amp;nbsp; &amp;nbsp; &amp;nbsp; &amp;nbsp; &amp;nbsp; &amp;nbsp; &amp;nbsp; &amp;nbsp; &amp;nbsp; &amp;nbsp; &amp;nbsp; &amp;nbsp; &amp;nbsp; &amp;nbsp; &amp;nbsp; &amp;nbsp; &amp;nbsp; &amp;nbsp; &amp;nbsp; &amp;nbsp; &amp;nbsp; &amp;nbsp; &amp;nbsp; &amp;nbsp; &amp;nbsp; &amp;nbsp; &amp;nbsp; &amp;nbsp; &amp;nbsp; &amp;nbsp; &amp;nbsp; &amp;nbsp; &amp;nbsp; &amp;nbsp; &amp;nbsp; &amp;nbsp; &amp;nbsp; &amp;nbsp; EN | GE | CH | FR" style="rounded=0;whiteSpace=wrap;html=1;strokeColor=#001DBC;fontColor=#ffffff;align=center;fillColor=#0050EF;" parent="1" vertex="1">
          <mxGeometry x="70" y="-60" width="960" height="30" as="geometry" />
        </mxCell>
        <mxCell id="X8gLjRTlshbioLyaXArV-2" value="&amp;nbsp; &amp;nbsp; &amp;nbsp;Home&amp;nbsp; &amp;nbsp; &amp;nbsp;About Us&amp;nbsp; &amp;nbsp; &amp;nbsp;Engineering&amp;nbsp; &amp;nbsp; &amp;nbsp; Engineering&amp;nbsp; &amp;nbsp; &amp;nbsp; &amp;nbsp;&lt;b&gt;Staffing&lt;/b&gt;&amp;nbsp; &amp;nbsp; &amp;nbsp; Career&amp;nbsp; &amp;nbsp; &amp;nbsp; Contact Us&amp;nbsp; &amp;nbsp; &amp;nbsp; &amp;nbsp; &amp;nbsp; &amp;nbsp; &amp;nbsp; &amp;nbsp; &amp;nbsp; &amp;nbsp; &amp;nbsp; &amp;nbsp; &amp;nbsp; &amp;nbsp; &amp;nbsp; &amp;nbsp; &amp;nbsp; &amp;nbsp; &amp;nbsp; &amp;nbsp; &amp;nbsp; &amp;nbsp; &amp;nbsp; &amp;nbsp; &amp;nbsp; &amp;nbsp; &amp;nbsp; &amp;nbsp; &amp;nbsp; &amp;nbsp; &amp;nbsp; &amp;nbsp; &amp;nbsp; &amp;nbsp; &amp;nbsp; &amp;nbsp; &amp;nbsp; &amp;nbsp; &amp;nbsp; &amp;nbsp; &amp;nbsp; &amp;nbsp;&amp;nbsp;&lt;br&gt;&amp;nbsp; &amp;nbsp; &amp;nbsp; &amp;nbsp; &amp;nbsp; &amp;nbsp; &amp;nbsp; &amp;nbsp; &amp;nbsp; &amp;nbsp; &amp;nbsp; &amp;nbsp; &amp;nbsp; &amp;nbsp; &amp;nbsp; &amp;nbsp; &amp;nbsp; &amp;nbsp; &amp;nbsp; &amp;nbsp; &amp;nbsp; Solutions&amp;nbsp; &amp;nbsp; &amp;nbsp; &amp;nbsp; &amp;nbsp; Services&amp;nbsp; &amp;nbsp; &amp;nbsp; &amp;nbsp; &amp;nbsp;&lt;b&gt;Solutions&lt;/b&gt;" style="rounded=0;whiteSpace=wrap;html=1;align=left;" parent="1" vertex="1">
          <mxGeometry x="70" y="-30" width="960" height="60" as="geometry" />
        </mxCell>
        <mxCell id="X8gLjRTlshbioLyaXArV-3" value="" style="rounded=0;whiteSpace=wrap;html=1;" parent="1" vertex="1">
          <mxGeometry x="70" y="30" width="960" height="1080" as="geometry" />
        </mxCell>
        <mxCell id="X8gLjRTlshbioLyaXArV-4" value="" style="rounded=0;whiteSpace=wrap;html=1;fillColor=#fff2cc;strokeColor=#d6b656;gradientColor=#ffd966;" parent="1" vertex="1">
          <mxGeometry x="550" y="30" width="480" height="360" as="geometry" />
        </mxCell>
        <mxCell id="X8gLjRTlshbioLyaXArV-5" value="" style="rounded=0;whiteSpace=wrap;html=1;fillColor=#B3FF66;" parent="1" vertex="1">
          <mxGeometry x="70" y="390" width="480" height="360" as="geometry" />
        </mxCell>
        <mxCell id="X8gLjRTlshbioLyaXArV-6" value="" style="rounded=0;whiteSpace=wrap;html=1;fillColor=#ffcccc;strokeColor=#36393d;" parent="1" vertex="1">
          <mxGeometry x="550" y="750" width="480" height="360" as="geometry" />
        </mxCell>
        <mxCell id="X8gLjRTlshbioLyaXArV-7" value="" style="shape=actor;whiteSpace=wrap;html=1;fillColor=#1ba1e2;strokeColor=#006EAF;fontColor=#ffffff;" parent="1" vertex="1">
          <mxGeometry x="300" y="510" width="40" height="60" as="geometry" />
        </mxCell>
        <mxCell id="X8gLjRTlshbioLyaXArV-8" value="" style="verticalLabelPosition=bottom;verticalAlign=top;html=1;shape=mxgraph.basic.smiley;fillColor=#ffcd28;gradientColor=#ffa500;" parent="1" vertex="1">
          <mxGeometry x="757" y="100" width="53" height="60" as="geometry" />
        </mxCell>
        <mxCell id="X8gLjRTlshbioLyaXArV-11" value="" style="rounded=0;whiteSpace=wrap;html=1;" parent="1" vertex="1">
          <mxGeometry x="70" y="30" width="480" height="360" as="geometry" />
        </mxCell>
        <mxCell id="X8gLjRTlshbioLyaXArV-12" value="" style="rounded=0;whiteSpace=wrap;html=1;" parent="1" vertex="1">
          <mxGeometry x="550" y="390" width="480" height="360" as="geometry" />
        </mxCell>
        <mxCell id="X8gLjRTlshbioLyaXArV-13" value="" style="rounded=0;whiteSpace=wrap;html=1;" parent="1" vertex="1">
          <mxGeometry x="70" y="750" width="480" height="360" as="geometry" />
        </mxCell>
        <mxCell id="X8gLjRTlshbioLyaXArV-18" value="" style="strokeWidth=2;html=1;shape=mxgraph.flowchart.annotation_2;align=left;labelPosition=right;pointerEvents=1;fillColor=#D5E8D4;rotation=90;" parent="1" vertex="1">
          <mxGeometry x="748.5" y="80" width="70" height="240" as="geometry" />
        </mxCell>
        <mxCell id="X8gLjRTlshbioLyaXArV-19" value="" style="verticalLabelPosition=bottom;verticalAlign=top;html=1;shape=mxgraph.basic.smiley;fillColor=#ffcd28;gradientColor=#ffa500;" parent="1" vertex="1">
          <mxGeometry x="640" y="240" width="53" height="60" as="geometry" />
        </mxCell>
        <mxCell id="X8gLjRTlshbioLyaXArV-20" value="" style="verticalLabelPosition=bottom;verticalAlign=top;html=1;shape=mxgraph.basic.smiley;fillColor=#ffcd28;gradientColor=#ffa500;" parent="1" vertex="1">
          <mxGeometry x="880" y="240" width="53" height="60" as="geometry" />
        </mxCell>
        <mxCell id="X8gLjRTlshbioLyaXArV-21" value="" style="shape=actor;whiteSpace=wrap;html=1;strokeColor=#000000;fillColor=#D5E8D4;" parent="1" vertex="1">
          <mxGeometry x="430" y="460" width="40" height="60" as="geometry" />
        </mxCell>
        <mxCell id="X8gLjRTlshbioLyaXArV-22" value="" style="shape=actor;whiteSpace=wrap;html=1;strokeColor=#000000;fillColor=#D5E8D4;" parent="1" vertex="1">
          <mxGeometry x="160" y="590" width="40" height="60" as="geometry" />
        </mxCell>
        <mxCell id="X8gLjRTlshbioLyaXArV-23" value="" style="shape=actor;whiteSpace=wrap;html=1;strokeColor=#000000;fillColor=#D5E8D4;" parent="1" vertex="1">
          <mxGeometry x="440" y="590" width="40" height="60" as="geometry" />
        </mxCell>
        <mxCell id="X8gLjRTlshbioLyaXArV-24" value="" style="shape=actor;whiteSpace=wrap;html=1;strokeColor=#000000;fillColor=#D5E8D4;" parent="1" vertex="1">
          <mxGeometry x="160" y="450" width="40" height="60" as="geometry" />
        </mxCell>
        <mxCell id="X8gLjRTlshbioLyaXArV-25" value="" style="shape=actor;whiteSpace=wrap;html=1;strokeColor=#000000;fillColor=#D5E8D4;" parent="1" vertex="1">
          <mxGeometry x="300" y="660" width="40" height="60" as="geometry" />
        </mxCell>
        <mxCell id="X8gLjRTlshbioLyaXArV-26" value="" style="shape=actor;whiteSpace=wrap;html=1;strokeColor=#000000;fillColor=#D5E8D4;" parent="1" vertex="1">
          <mxGeometry x="300" y="400" width="40" height="60" as="geometry" />
        </mxCell>
        <mxCell id="X8gLjRTlshbioLyaXArV-27" value="" style="endArrow=classic;html=1;exitX=1;exitY=0.75;exitDx=0;exitDy=0;" parent="1" source="X8gLjRTlshbioLyaXArV-7" edge="1">
          <mxGeometry width="50" height="50" relative="1" as="geometry">
            <mxPoint x="390" y="530" as="sourcePoint" />
            <mxPoint x="430" y="510" as="targetPoint" />
          </mxGeometry>
        </mxCell>
        <mxCell id="X8gLjRTlshbioLyaXArV-28" value="" style="endArrow=classic;html=1;exitX=1.025;exitY=1.033;exitDx=0;exitDy=0;entryX=0;entryY=0.75;entryDx=0;entryDy=0;exitPerimeter=0;" parent="1" source="X8gLjRTlshbioLyaXArV-7" target="X8gLjRTlshbioLyaXArV-23" edge="1">
          <mxGeometry width="50" height="50" relative="1" as="geometry">
            <mxPoint x="350" y="565" as="sourcePoint" />
            <mxPoint x="440" y="520" as="targetPoint" />
          </mxGeometry>
        </mxCell>
        <mxCell id="X8gLjRTlshbioLyaXArV-29" value="" style="endArrow=classic;html=1;exitX=1.025;exitY=1.033;exitDx=0;exitDy=0;entryX=0.5;entryY=0;entryDx=0;entryDy=0;exitPerimeter=0;" parent="1" target="X8gLjRTlshbioLyaXArV-25" edge="1">
          <mxGeometry width="50" height="50" relative="1" as="geometry">
            <mxPoint x="320" y="570" as="sourcePoint" />
            <mxPoint x="419" y="633.02" as="targetPoint" />
          </mxGeometry>
        </mxCell>
        <mxCell id="X8gLjRTlshbioLyaXArV-31" value="" style="endArrow=classic;html=1;exitX=0.5;exitY=0;exitDx=0;exitDy=0;entryX=0.5;entryY=1;entryDx=0;entryDy=0;" parent="1" source="X8gLjRTlshbioLyaXArV-7" target="X8gLjRTlshbioLyaXArV-26" edge="1">
          <mxGeometry width="50" height="50" relative="1" as="geometry">
            <mxPoint x="270" y="530" as="sourcePoint" />
            <mxPoint x="320" y="480" as="targetPoint" />
          </mxGeometry>
        </mxCell>
        <mxCell id="X8gLjRTlshbioLyaXArV-32" value="" style="endArrow=classic;html=1;entryX=1;entryY=0.75;entryDx=0;entryDy=0;exitX=0.479;exitY=0.444;exitDx=0;exitDy=0;exitPerimeter=0;" parent="1" source="X8gLjRTlshbioLyaXArV-5" target="X8gLjRTlshbioLyaXArV-24" edge="1">
          <mxGeometry width="50" height="50" relative="1" as="geometry">
            <mxPoint x="280" y="520" as="sourcePoint" />
            <mxPoint x="280" y="470" as="targetPoint" />
          </mxGeometry>
        </mxCell>
        <mxCell id="X8gLjRTlshbioLyaXArV-33" value="" style="endArrow=classic;html=1;exitX=-0.05;exitY=1.083;exitDx=0;exitDy=0;exitPerimeter=0;entryX=0.9;entryY=0.5;entryDx=0;entryDy=0;entryPerimeter=0;" parent="1" source="X8gLjRTlshbioLyaXArV-7" target="X8gLjRTlshbioLyaXArV-22" edge="1">
          <mxGeometry width="50" height="50" relative="1" as="geometry">
            <mxPoint x="330" y="580" as="sourcePoint" />
            <mxPoint x="330" y="670" as="targetPoint" />
          </mxGeometry>
        </mxCell>
        <mxCell id="X8gLjRTlshbioLyaXArV-34" value="" style="shape=mxgraph.bpmn.shape;html=1;verticalLabelPosition=bottom;labelBackgroundColor=#ffffff;verticalAlign=top;align=center;perimeter=ellipsePerimeter;outlineConnect=0;outline=eventNonint;symbol=timer;" parent="1" vertex="1">
          <mxGeometry x="680" y="810" width="204.25" height="210" as="geometry" />
        </mxCell>
        <mxCell id="X8gLjRTlshbioLyaXArV-36" value="&lt;font style=&quot;font-size: 22px;&quot;&gt;CAx-CONVERGE&lt;/font&gt;" style="rounded=0;whiteSpace=wrap;html=1;align=center;fontSize=22;fontStyle=1;strokeColor=none;fillColor=#FFFFFF;fontColor=#3333FF;" parent="1" vertex="1">
          <mxGeometry x="800" y="-20" width="190" height="40" as="geometry" />
        </mxCell>
        <mxCell id="JO0JL_rtTt94p9omxoUN-2" value="&lt;h1&gt;Remote Professionals&lt;/h1&gt;&lt;p style=&quot;text-align: justify&quot;&gt;When you hire an RP, you’re actually getting a team, not just an employee.&amp;nbsp; All RPs are continuously supervised and coached and trained.&amp;nbsp; RPs are managed by our remote Supervisors and Managers.&amp;nbsp; (We use RPs to run and manage our own company too. Pretty cool, right?!)&amp;nbsp; Every client has a designated team consisting of a Senior RP, Project Manager, Team Leader, the actual RP doing most of the work, a Backup RP and IT Support people.&amp;nbsp; This ensures continuity in your workflow, in a way that a single on-site employee never could.&lt;/p&gt;&lt;div style=&quot;text-align: justify&quot;&gt;RPs work for you, and only you.&amp;nbsp; RPs don’t work for any other clients.&amp;nbsp; They work exclusively for you.&amp;nbsp; They don’t share your Confidential information with competitors or other employees.&amp;nbsp; They’re not working for multiple clients at the same time, jumping back and forth.&amp;nbsp; They are focused on your work, and only your work.&amp;nbsp; You are their only priority.&lt;br&gt;&lt;/div&gt;&lt;div style=&quot;text-align: justify&quot;&gt;&lt;br&gt;&lt;/div&gt;&lt;div style=&quot;text-align: justify&quot;&gt;Finding and hiring the right worker for your business takes a lot of valuable time and effort, so why not leave all the work to us?&amp;nbsp; We know you’re busy, so instead of being overwhelmed with recruiting, we want you to focus on the more important aspects of your business.&amp;nbsp; Just tell us what type of worker you’re looking for and we’ll take it from there.&lt;br&gt;&lt;/div&gt;" style="text;html=1;strokeColor=none;fillColor=none;spacing=5;spacingTop=-20;whiteSpace=wrap;overflow=hidden;rounded=0;fontColor=#333333;" vertex="1" parent="1">
          <mxGeometry x="85" y="40" width="445" height="330" as="geometry" />
        </mxCell>
        <mxCell id="JO0JL_rtTt94p9omxoUN-3" value="&lt;h1&gt;Onsite Professionals&amp;nbsp;&lt;/h1&gt;&lt;p style=&quot;color: rgb(51 , 51 , 51) ; text-align: justify&quot;&gt;When you hire an RP, you’re actually getting a team, not just an employee.&amp;nbsp; All RPs are continuously supervised and coached and trained.&amp;nbsp; RPs are managed by our remote Supervisors and Managers.&amp;nbsp; (We use RPs to run and manage our own company too. Pretty cool, right?!)&amp;nbsp; Every client has a designated team consisting of a Senior RP, Project Manager, Team Leader, the actual RP doing most of the work, a Backup RP and IT Support people.&amp;nbsp; This ensures continuity in your workflow, in a way that a single on-site employee never could.&lt;/p&gt;&lt;div style=&quot;color: rgb(51 , 51 , 51) ; text-align: justify&quot;&gt;RPs work for you, and only you.&amp;nbsp; RPs don’t work for any other clients.&amp;nbsp; They work exclusively for you.&amp;nbsp; They don’t share your Confidential information with competitors or other employees.&amp;nbsp; They’re not working for multiple clients at the same time, jumping back and forth.&amp;nbsp; They are focused on your work, and only your work.&amp;nbsp; You are their only priority.&lt;br&gt;&lt;/div&gt;&lt;div style=&quot;color: rgb(51 , 51 , 51) ; text-align: justify&quot;&gt;&lt;br&gt;&lt;/div&gt;&lt;div style=&quot;color: rgb(51 , 51 , 51) ; text-align: justify&quot;&gt;Finding and hiring the right worker for your business takes a lot of valuable time and effort, so why not leave all the work to us?&amp;nbsp; We know you’re busy, so instead of being overwhelmed with recruiting, we want you to focus on the more important aspects of your business.&amp;nbsp; Just tell us what type of worker you’re looking for and we’ll take it from there.&lt;/div&gt;" style="text;html=1;strokeColor=none;fillColor=none;spacing=5;spacingTop=-20;whiteSpace=wrap;overflow=hidden;rounded=0;fontColor=#1A1A1A;" vertex="1" parent="1">
          <mxGeometry x="558.5" y="400" width="461.5" height="340" as="geometry" />
        </mxCell>
        <mxCell id="JO0JL_rtTt94p9omxoUN-4" value="&lt;h1&gt;Offshore Professionals&lt;/h1&gt;&lt;p style=&quot;text-align: justify&quot;&gt;Offshore staffing isn’t just about cost savings (though the cost savings are obviously one of the biggest benefits). It also gives you access to an entirely new pool of talent and can help your business work smarter in an increasingly competitive business landscape.&lt;/p&gt;&lt;div style=&quot;text-align: justify&quot;&gt;&lt;div&gt;If you think it sounds complex, don’t worry, offshore staffing is easy. In fact, the process is similar to how you’d hire talent locally.&lt;/div&gt;&lt;div&gt;&lt;br&gt;&lt;/div&gt;&lt;div&gt;We’ll help you work out what your hiring needs are and prepare detailed job profiles. Then our recruitment team will source potential candidates, run through the initial screening processes, then present you with our recommended shortlist. You can then screen the candidates so you can make an informed decision.&lt;/div&gt;&lt;div&gt;&lt;br&gt;&lt;/div&gt;&lt;div&gt;You’ll work with our IT department to set up everything that’s required for your offshore staffing needs. Your MicroSourcing account manager will work with you on the operations and management side. We’ll help you identify key performance indicators, performance targets and reporting structures for your offshore staff. Once everything is ready to go, we’ll provide the complete array of management and support functions needed to help you run an effective offshore team.&lt;br&gt;&lt;/div&gt;&lt;/div&gt;" style="text;html=1;strokeColor=none;fillColor=none;spacing=5;spacingTop=-20;whiteSpace=wrap;overflow=hidden;rounded=0;fontColor=#333333;" vertex="1" parent="1">
          <mxGeometry x="85" y="760" width="445" height="340" as="geometry" />
        </mxCell>
        <mxCell id="JO0JL_rtTt94p9omxoUN-5" value="&lt;font color=&quot;#ffffff&quot; style=&quot;font-size: 24px&quot;&gt;Website Footer&lt;/font&gt;" style="rounded=0;whiteSpace=wrap;html=1;fontColor=#333333;fillColor=#0050EF;" vertex="1" parent="1">
          <mxGeometry x="70" y="1110" width="960" height="80" as="geometry" />
        </mxCell>
      </root>
    </mxGraphModel>
  </diagram>
</mxfile>
